<?xml version="1.0" encoding="UTF-8"?>
<!DOCTYPE svg PUBLIC "-//W3C//DTD SVG 1.1//EN" "http://www.w3.org/Graphics/SVG/1.1/DTD/svg11.dtd">
<svg xmlns="http://www.w3.org/2000/svg" version="1.1" width="1170px" height="1170px" style="shape-rendering:geometricPrecision; text-rendering:geometricPrecision; image-rendering:optimizeQuality; fill-rule:evenodd; clip-rule:evenodd" xmlns:xlink="http://www.w3.org/1999/xlink">
<g><path style="opacity:1" fill="#27221f" d="M 543.5,-0.5 C 571.167,-0.5 598.833,-0.5 626.5,-0.5C 627.919,0.451145 629.585,0.784479 631.5,0.5C 636.916,2.11733 642.583,2.78399 648.5,2.5C 663.292,3.66078 677.958,5.66078 692.5,8.5C 692.611,9.11742 692.944,9.61742 693.5,10C 697.44,11.0153 701.44,11.5153 705.5,11.5C 844.446,42.3356 957.946,113.002 1046,223.5C 1096.66,288.498 1132.16,361.165 1152.5,441.5C 1152.34,443.527 1152.5,445.527 1153,447.5C 1153.38,448.056 1153.88,448.389 1154.5,448.5C 1159.12,466.593 1162.45,484.926 1164.5,503.5C 1164.16,509.098 1164.82,514.432 1166.5,519.5C 1167.56,527.161 1168.56,534.827 1169.5,542.5C 1169.5,570.167 1169.5,597.833 1169.5,625.5C 1168.51,633.375 1167.51,641.375 1166.5,649.5C 1165.73,650.263 1165.23,651.263 1165,652.5C 1164.5,656.152 1164.33,659.818 1164.5,663.5C 1163.27,675.989 1161.27,688.323 1158.5,700.5C 1156.12,704.393 1155.12,708.727 1155.5,713.5C 1155.5,713.833 1155.5,714.167 1155.5,714.5C 1154.88,714.611 1154.38,714.944 1154,715.5C 1152.53,720.063 1151.69,724.73 1151.5,729.5C 1149.61,739.396 1146.94,749.063 1143.5,758.5C 1140.68,762.63 1139.01,767.297 1138.5,772.5C 1096.88,891.625 1024.88,988.125 922.5,1062C 849.033,1113.78 767.699,1146.95 678.5,1161.5C 675.482,1161.34 672.482,1161.5 669.5,1162C 668.944,1162.38 668.611,1162.88 668.5,1163.5C 648.423,1166.17 628.423,1168.17 608.5,1169.5C 592.833,1169.5 577.167,1169.5 561.5,1169.5C 546.957,1168.4 532.29,1167.06 517.5,1165.5C 517.082,1164.78 516.416,1164.28 515.5,1164C 512.183,1163.5 508.85,1163.33 505.5,1163.5C 385.078,1146.24 280.078,1097.08 190.5,1016C 117.27,948.227 64.27,867.06 31.5,772.5C 30.6578,766.3 28.6578,760.633 25.5,755.5C 20.7413,741.466 17.0746,727.132 14.5,712.5C 14.7276,708.076 13.7276,704.076 11.5,700.5C 8.57329,688.351 6.57329,676.018 5.5,663.5C 5.6653,659.818 5.49863,656.152 5,652.5C 4.72158,651.584 4.22158,650.918 3.5,650.5C 3.5,649.5 3.5,648.5 3.5,647.5C 3.66593,642.489 3.49926,637.489 3,632.5C 2.78997,630.942 2.28997,629.609 1.5,628.5C 0.941668,621.353 0.275001,614.353 -0.5,607.5C -0.5,591.5 -0.5,575.5 -0.5,559.5C 0.35036,548.947 1.35036,538.281 2.5,527.5C 4.26038,522.447 4.92704,517.114 4.5,511.5C 23.7127,368.891 85.7127,249.058 190.5,152C 250.484,97.269 319.15,56.769 396.5,30.5C 400.767,29.7444 404.767,28.411 408.5,26.5C 452.41,11.9847 497.41,2.9847 543.5,-0.5 Z"/></g>
<g><path style="opacity:0.886" fill="#7e7b79" d="M 631.5,0.5 C 637.36,0.716824 643.027,1.38349 648.5,2.5C 642.583,2.78399 636.916,2.11733 631.5,0.5 Z"/></g>
<g><path style="opacity:0.878" fill="#7d7977" d="M 692.5,8.5 C 697.035,9.1368 701.368,10.1368 705.5,11.5C 701.44,11.5153 697.44,11.0153 693.5,10C 692.944,9.61742 692.611,9.11742 692.5,8.5 Z"/></g>
<g><path style="opacity:1" fill="#f9f9f9" d="M 561.5,10.5 C 759.884,9.03594 920.384,85.3693 1043,239.5C 1087.89,300.959 1120.23,368.626 1140,442.5C 1175.8,593.672 1155.8,737.006 1080,872.5C 1002.62,999.84 892.791,1086.34 750.5,1132C 575.361,1181.14 412.028,1155.81 260.5,1056C 93.1053,934.044 10.6053,768.877 13,560.5C 23.2565,388.483 94.0898,247.65 225.5,138C 262.681,109.564 302.348,84.897 344.5,64C 413.781,33.4294 486.115,15.5961 561.5,10.5 Z"/></g>
<g><path style="opacity:1" fill="#2b2624" d="M 560.5,19.5 C 710.683,15.72 842.683,62.22 956.5,159C 1089.13,280.101 1152.97,430.934 1148,611.5C 1135.03,787.985 1058.86,929.818 919.5,1037C 790.795,1128.92 647.795,1163.26 490.5,1140C 289.694,1098.81 147.527,984.976 64,798.5C 12.0783,667.731 7.74494,535.398 51,401.5C 99.806,266.323 186.306,162.823 310.5,91C 388.372,47.8672 471.705,24.0339 560.5,19.5 Z"/></g>
<g><path style="opacity:1" fill="#fdfdfd" d="M 570.5,23.5 C 676.765,21.9817 775.765,47.815 867.5,101C 918.398,129.402 963.231,165.569 1002,209.5C 1115.32,341.836 1160.65,494.836 1138,668.5C 1123.97,756.851 1090.97,837.184 1039,909.5C 947.576,1032.19 826.076,1107.69 674.5,1136C 515.77,1158.61 372.437,1122.28 244.5,1027C 124.453,931.479 52.9526,807.312 30,654.5C 11,460.444 72.1666,296.944 213.5,164C 289.883,99.4766 377.216,56.1433 475.5,34C 507.101,28.5997 538.767,25.0997 570.5,23.5 Z"/></g>
<g><path style="opacity:0.859" fill="#706d6b" d="M 408.5,26.5 C 404.767,28.411 400.767,29.7444 396.5,30.5C 400.085,28.1939 404.085,26.8606 408.5,26.5 Z"/></g>
<g><path style="opacity:1" fill="#a7a5a3" d="M 561.5,45.5 C 558.5,45.5 555.5,45.5 552.5,45.5C 552.5,48.1667 552.5,50.8333 552.5,53.5C 551.523,50.7131 551.19,47.7131 551.5,44.5C 555.042,44.1872 558.375,44.5206 561.5,45.5 Z"/></g>
<g><path style="opacity:1" fill="#221d1a" d="M 561.5,45.5 C 563.688,74.065 566.022,102.565 568.5,131C 565.028,132.58 561.362,132.913 557.5,132C 537.367,114.202 517.534,96.0353 498,77.5C 499.61,96.991 501.443,116.491 503.5,136C 503.095,136.945 502.428,137.612 501.5,138C 498.854,138.497 496.187,138.664 493.5,138.5C 491.286,109.442 488.786,80.4422 486,51.5C 490.079,50.3705 494.245,50.2039 498.5,51C 517.065,69.5677 536.231,87.401 556,104.5C 555.056,87.4963 553.889,70.4963 552.5,53.5C 552.5,50.8333 552.5,48.1667 552.5,45.5C 555.5,45.5 558.5,45.5 561.5,45.5 Z"/></g>
<g><path style="opacity:1" fill="#211c19" d="M 661.5,129.5 C 660.539,131.265 660.205,133.265 660.5,135.5C 656.5,135.5 652.5,135.5 648.5,135.5C 637.127,134.907 625.793,133.907 614.5,132.5C 617.218,103.521 619.551,74.5209 621.5,45.5C 637.442,47.3683 653.442,49.035 669.5,50.5C 667.604,52.881 667.271,55.381 668.5,58C 658.864,57.1903 649.197,56.357 639.5,55.5C 639.618,65.2768 638.952,74.9435 637.5,84.5C 646.63,84.3259 655.63,85.3259 664.5,87.5C 663.626,89.7466 663.292,92.0799 663.5,94.5C 654.5,93.8333 645.5,93.1667 636.5,92.5C 634.97,103.774 634.303,115.107 634.5,126.5C 643.831,126.963 653.164,127.463 662.5,128C 661.944,128.383 661.611,128.883 661.5,129.5 Z"/></g>
<g><path style="opacity:1" fill="#221d1a" d="M 745.5,71.5 C 761.95,71.1954 776.95,75.6954 790.5,85C 794.69,87.6903 798.024,91.1903 800.5,95.5C 797.453,98.5448 794.787,101.878 792.5,105.5C 783.529,84.1783 768.196,77.345 746.5,85C 728.968,101.245 723.468,120.745 730,143.5C 738.016,153.758 748.516,158.425 761.5,157.5C 764.214,148.029 767.547,138.696 771.5,129.5C 772,129.167 772.5,128.833 773,128.5C 777.976,130.658 783.142,132.325 788.5,133.5C 785.035,144.563 781.368,155.563 777.5,166.5C 762.687,166.809 748.354,164.309 734.5,159C 712.335,149.793 703.501,133.293 708,109.5C 712.769,88.8988 725.269,76.2321 745.5,71.5 Z"/></g>
<g><path style="opacity:1" fill="#221d1a" d="M 858.5,118.5 C 868.972,125.24 879.639,131.74 890.5,138C 893.255,139.711 895.589,141.878 897.5,144.5C 896.081,146.336 894.914,148.336 894,150.5C 887.582,147.042 881.415,143.209 875.5,139C 873.598,137.699 871.598,137.032 869.5,137C 864.5,144.667 859.5,152.333 854.5,160C 862.203,164.847 869.87,169.681 877.5,174.5C 875.828,176.671 873.995,178.671 872,180.5C 867.095,178.298 862.595,175.465 858.5,172C 855.702,170.086 852.702,169.086 849.5,169C 844.333,176.833 839.167,184.667 834,192.5C 833.289,194.367 833.789,195.867 835.5,197C 842.634,201.303 849.634,205.803 856.5,210.5C 854.183,212.242 852.683,214.576 852,217.5C 842.249,210.705 832.083,204.539 821.5,199C 818.091,196.966 815.091,194.466 812.5,191.5C 827.86,167.149 843.193,142.816 858.5,118.5 Z"/></g>
<g><path style="opacity:1" fill="#6e6a68" d="M 661.5,129.5 C 661.5,131.833 661.5,134.167 661.5,136.5C 656.968,136.818 652.634,136.485 648.5,135.5C 652.5,135.5 656.5,135.5 660.5,135.5C 660.205,133.265 660.539,131.265 661.5,129.5 Z"/></g>
<g><path style="opacity:1" fill="#201c19" d="M 557.5,152.5 C 696.368,147.588 812.868,195.588 907,296.5C 1000.09,405.518 1033.43,530.851 1007,672.5C 978.057,796.707 909.223,891.541 800.5,957C 702.679,1011.07 599.013,1026.74 489.5,1004C 349.264,968.42 249.097,884.92 189,753.5C 149.53,657.507 143.863,559.507 172,459.5C 213.917,329.914 297.417,238.081 422.5,184C 466.097,167.016 511.097,156.516 557.5,152.5 Z"/></g>
<g><path style="opacity:1" fill="#445898" d="M 566.5,165.5 C 698.738,163.726 809.571,211.06 899,307.5C 981.052,404.69 1014.05,516.69 998,643.5C 976.626,770.519 912.126,868.685 804.5,938C 705.166,997.622 598.832,1014.62 485.5,989C 376.289,959.413 291.123,897.246 230,802.5C 178.929,718.491 159.262,627.491 171,529.5C 195.025,381.548 273.525,273.715 406.5,206C 457.238,181.816 510.571,168.316 566.5,165.5 Z"/></g>
<g><path style="opacity:1" fill="#221d1a" d="M 236.5,170.5 C 239.187,170.336 241.854,170.503 244.5,171C 246.265,174.938 248.265,178.771 250.5,182.5C 250.167,183.5 249.5,184.167 248.5,184.5C 239.519,180.681 231.686,182.348 225,189.5C 221.537,200.251 225.37,206.251 236.5,207.5C 247.753,205.076 259.086,203.242 270.5,202C 281.238,205.071 288.404,211.904 292,222.5C 293.116,235.105 288.616,245.272 278.5,253C 274.341,256.247 270.008,259.247 265.5,262C 262.806,263.19 260.139,263.356 257.5,262.5C 254.867,257.52 252.2,252.52 249.5,247.5C 249.667,247.167 249.833,246.833 250,246.5C 253.531,248.849 257.365,250.515 261.5,251.5C 270.128,250.033 276.295,245.367 280,237.5C 281.593,228.088 277.593,223.088 268,222.5C 257.821,224.113 247.655,225.78 237.5,227.5C 220.376,224.871 212.209,214.871 213,197.5C 217.833,185.837 225.667,176.837 236.5,170.5 Z"/></g>
<g><path style="opacity:1" fill="#211c19" d="M 939.5,179.5 C 943.325,182.477 947.325,185.311 951.5,188C 956.365,193.2 961.532,198.033 967,202.5C 978.699,215.154 978.199,227.32 965.5,239C 956.907,242.608 948.574,242.108 940.5,237.5C 938.237,254.539 935.904,271.539 933.5,288.5C 929.691,285.858 926.024,283.025 922.5,280C 919.781,277.618 917.447,274.951 915.5,272C 919.469,257.022 921.969,241.856 923,226.5C 914.862,237.104 906.029,247.104 896.5,256.5C 891.981,253.071 887.648,249.404 883.5,245.5C 902.565,223.774 921.231,201.774 939.5,179.5 Z"/></g>
<g><path style="opacity:1" fill="#fbfafa" d="M 947.5,198.5 C 951.876,199.024 955.043,201.357 957,205.5C 959.091,218.275 953.758,226.608 941,230.5C 935.604,229.224 931.104,226.557 927.5,222.5C 933.698,214.1 940.365,206.1 947.5,198.5 Z"/></g>
<g><path style="opacity:1" fill="#3f442a" d="M 558.5,245.5 C 558.158,244.662 557.492,244.328 556.5,244.5C 558.316,243.379 560.316,242.879 562.5,243C 561.307,244.095 559.973,244.928 558.5,245.5 Z"/></g>
<g><path style="opacity:1" fill="#aad105" d="M 556.5,244.5 C 557.492,244.328 558.158,244.662 558.5,245.5C 539.549,261.624 524.049,280.624 512,302.5C 508.646,308.869 506.146,315.536 504.5,322.5C 502.926,324.102 502.259,326.102 502.5,328.5C 497.357,350.645 500.357,371.645 511.5,391.5C 511.427,393.027 512.094,394.027 513.5,394.5C 527.606,415.581 547.273,428.748 572.5,434C 582.207,434.786 591.874,434.453 601.5,433C 638.581,423.086 660.581,399.252 667.5,361.5C 668.165,358.016 668.499,354.349 668.5,350.5C 668.62,344.267 667.953,338.267 666.5,332.5C 660.883,307.598 649.716,285.598 633,266.5C 625.829,258.996 618.329,251.83 610.5,245C 619.844,246.835 629.177,249.002 638.5,251.5C 640.515,252.924 642.848,253.59 645.5,253.5C 673.752,262.625 699.419,276.458 722.5,295C 756.102,327.673 765.268,366.173 750,410.5C 736.592,435.637 715.759,450.637 687.5,455.5C 682.647,455.813 677.98,456.479 673.5,457.5C 672.5,457.5 671.5,457.5 670.5,457.5C 658.48,457.672 646.48,457.338 634.5,456.5C 626.858,455.303 619.192,454.303 611.5,453.5C 609.086,452.067 606.419,451.567 603.5,452C 604.91,453.372 606.577,454.205 608.5,454.5C 615.525,459.176 623.192,462.509 631.5,464.5C 633.515,465.924 635.848,466.59 638.5,466.5C 638.833,466.5 639.167,466.5 639.5,466.5C 642.219,467.913 645.219,468.58 648.5,468.5C 651.391,469.403 654.391,469.736 657.5,469.5C 661.82,470.166 666.32,470.499 671,470.5C 678.391,470.636 685.557,469.969 692.5,468.5C 698.204,467.324 703.87,465.991 709.5,464.5C 711.967,464.245 713.967,463.245 715.5,461.5C 748.625,449.212 769.125,425.878 777,391.5C 779.853,363.566 772.686,338.566 755.5,316.5C 755.5,316.167 755.5,315.833 755.5,315.5C 767.959,320.896 779.292,328.062 789.5,337C 822.428,366.691 843.595,403.191 853,446.5C 862.174,489.012 849.34,522.846 814.5,548C 809.256,550.685 803.923,552.852 798.5,554.5C 792.87,555.292 787.203,555.625 781.5,555.5C 774.028,554.299 766.695,552.465 759.5,550C 732.463,536.33 708.796,517.996 688.5,495C 671.297,491.617 653.964,488.95 636.5,487C 625.223,484.86 614.89,480.693 605.5,474.5C 602.896,472.4 600.396,470.067 598,467.5C 599.067,471.429 601.234,474.762 604.5,477.5C 611.532,484.859 620.198,489.193 630.5,490.5C 632.905,491.768 635.572,492.435 638.5,492.5C 640.905,493.768 643.572,494.435 646.5,494.5C 648.515,495.924 650.848,496.59 653.5,496.5C 681.431,506.594 703.264,524.261 719,549.5C 731.378,563.045 746.545,571.711 764.5,575.5C 766.905,576.768 769.572,577.435 772.5,577.5C 816.891,580.219 847.058,560.885 863,519.5C 867.428,506.527 869.595,493.194 869.5,479.5C 870.167,475.167 870.833,470.833 871.5,466.5C 881.788,492.417 890.955,518.75 899,545.5C 909.134,583.821 907.134,621.488 893,658.5C 872.785,702.355 840.285,715.188 795.5,697C 788.646,693.408 782.313,689.075 776.5,684C 764.12,670.288 753.287,655.455 744,639.5C 731.222,617.613 719.222,595.279 708,572.5C 699.115,555.452 686.615,541.785 670.5,531.5C 670.027,530.094 669.027,529.427 667.5,529.5C 643.149,516.159 617.149,507.159 589.5,502.5C 587.866,501.839 586.033,501.506 584,501.5C 580.549,501.421 577.382,502.087 574.5,503.5C 543.986,507.941 516.319,519.108 491.5,537C 483.548,543.946 476.714,551.779 471,560.5C 457.147,583.54 443.814,606.873 431,630.5C 421.494,645.513 411.494,660.18 401,674.5C 377.455,701.904 348.288,710.737 313.5,701C 292.281,688.089 278.114,669.589 271,645.5C 269.419,639.724 267.919,634.058 266.5,628.5C 266.461,624.267 265.795,620.267 264.5,616.5C 260.718,581.136 265.218,546.803 278,513.5C 284.26,497.325 290.76,481.325 297.5,465.5C 298.167,471.167 298.833,476.833 299.5,482.5C 299.375,506.447 306.042,528.113 319.5,547.5C 319.427,549.027 320.094,550.027 321.5,550.5C 329.927,561.257 340.594,568.924 353.5,573.5C 356.799,575.483 360.466,576.483 364.5,576.5C 377.613,578.19 390.613,577.523 403.5,574.5C 405.967,574.245 407.967,573.245 409.5,571.5C 412.382,570.189 415.382,569.022 418.5,568C 423.833,564.333 429.167,560.667 434.5,557C 443.555,547.614 452.555,538.28 461.5,529C 475.862,515.986 492.195,506.32 510.5,500C 519.401,497.358 528.401,495.191 537.5,493.5C 540.486,493.097 543.152,492.097 545.5,490.5C 550.994,489.086 555.994,486.586 560.5,483C 563.094,480.914 565.094,478.414 566.5,475.5C 569.125,473.397 570.625,470.73 571,467.5C 568.604,470.067 566.104,472.4 563.5,474.5C 553.195,480.602 542.195,484.935 530.5,487.5C 525.99,487.884 521.657,488.551 517.5,489.5C 513.958,489.187 510.625,489.521 507.5,490.5C 501.931,490.376 496.598,491.043 491.5,492.5C 487.654,492.545 483.987,493.378 480.5,495C 465.685,510.491 449.685,524.491 432.5,537C 422.622,543.272 412.289,548.439 401.5,552.5C 398.627,552.802 395.961,553.469 393.5,554.5C 387.529,555.241 381.529,555.575 375.5,555.5C 360.124,552.725 347.29,545.392 337,533.5C 326.436,522.041 319.269,508.708 315.5,493.5C 315.149,489.316 314.482,485.316 313.5,481.5C 313.5,480.5 313.5,479.5 313.5,478.5C 313.501,470.483 313.834,462.483 314.5,454.5C 324.894,397.196 354.228,352.363 402.5,320C 406.188,318.487 409.855,316.987 413.5,315.5C 413.5,315.833 413.5,316.167 413.5,316.5C 406.557,327.054 401.224,338.387 397.5,350.5C 396.076,352.515 395.41,354.848 395.5,357.5C 387.266,399.285 401.266,431.452 437.5,454C 447.509,459.837 458.176,464.003 469.5,466.5C 472.544,468.011 475.878,468.678 479.5,468.5C 507.281,472.438 533.614,468.105 558.5,455.5C 561.274,454.277 563.941,452.777 566.5,451C 562.752,451.623 559.086,452.456 555.5,453.5C 555.167,453.5 554.833,453.5 554.5,453.5C 547.673,454.331 541.006,455.331 534.5,456.5C 504.494,460.761 475.827,456.595 448.5,444C 428.762,431.057 416.595,412.89 412,389.5C 408.289,352.286 419.789,320.786 446.5,295C 469.692,275.984 495.692,262.151 524.5,253.5C 526.898,253.741 528.898,253.074 530.5,251.5C 539.182,249.163 547.849,246.83 556.5,244.5 Z"/></g>
<g><path style="opacity:1" fill="#404444" d="M 638.5,251.5 C 641.152,251.41 643.485,252.076 645.5,253.5C 642.848,253.59 640.515,252.924 638.5,251.5 Z"/></g>
<g><path style="opacity:1" fill="#596624" d="M 530.5,251.5 C 528.898,253.074 526.898,253.741 524.5,253.5C 526.214,252.262 528.214,251.595 530.5,251.5 Z"/></g>
<g><path style="opacity:1" fill="#221d1a" d="M 147.5,261.5 C 161.187,265.228 174.853,269.062 188.5,273C 206.255,276.681 223.922,280.681 241.5,285C 237.596,291.316 233.096,297.149 228,302.5C 220.285,300.039 212.618,297.372 205,294.5C 198.347,301.167 192.347,308.5 187,316.5C 186.333,317.5 186.333,318.5 187,319.5C 191.5,326.5 196,333.5 200.5,340.5C 198.748,343.672 196.748,346.672 194.5,349.5C 185.595,336.704 177.428,323.37 170,309.5C 160.835,296.508 152.169,283.174 144,269.5C 144.166,266.478 145.333,263.811 147.5,261.5 Z"/></g>
<g><path style="opacity:1" fill="#5e5a2c" d="M 589.5,267.5 C 590.906,267.973 591.573,268.973 591.5,270.5C 590.094,270.027 589.427,269.027 589.5,267.5 Z"/></g>
<g><path style="opacity:1" fill="#211c19" d="M 1024.5,270.5 C 1025.5,270.414 1026.33,270.748 1027,271.5C 1030.25,276.023 1032.92,280.69 1035,285.5C 1011.58,302.088 987.742,318.088 963.5,333.5C 960.043,328.754 956.71,323.92 953.5,319C 977.233,302.811 1000.9,286.644 1024.5,270.5 Z"/></g>
<g><path style="opacity:1" fill="#847f25" d="M 573.5,277.5 C 573.262,279.404 572.262,280.738 570.5,281.5C 570.738,279.596 571.738,278.262 573.5,277.5 Z"/></g>
<g><path style="opacity:1" fill="#f6f6f6" d="M 163.5,283.5 C 173.629,286.969 183.963,289.802 194.5,292C 190.023,297.978 185.357,303.811 180.5,309.5C 174.328,301.155 168.662,292.488 163.5,283.5 Z"/></g>
<g><path style="opacity:1" fill="#505b24" d="M 413.5,316.5 C 413.5,316.167 413.5,315.833 413.5,315.5C 414.002,313.915 415.002,313.415 416.5,314C 415.627,315.045 414.627,315.878 413.5,316.5 Z"/></g>
<g><path style="opacity:1" fill="#4c5625" d="M 755.5,315.5 C 755.5,315.833 755.5,316.167 755.5,316.5C 754.373,315.878 753.373,315.045 752.5,314C 753.998,313.415 754.998,313.915 755.5,315.5 Z"/></g>
<g><path style="opacity:1" fill="#505a24" d="M 504.5,322.5 C 504.405,324.786 503.738,326.786 502.5,328.5C 502.259,326.102 502.926,324.102 504.5,322.5 Z"/></g>
<g><path style="opacity:1" fill="#fdf300" d="M 589.5,267.5 C 589.427,269.027 590.094,270.027 591.5,270.5C 600.991,282.803 610.491,295.137 620,307.5C 625.387,316.605 629.387,326.272 632,336.5C 635.728,334.869 639.561,333.535 643.5,332.5C 644.609,332.557 645.609,332.89 646.5,333.5C 653.519,363.574 645.852,389.408 623.5,411C 617.605,415.107 611.605,418.941 605.5,422.5C 602.594,423.787 599.594,424.787 596.5,425.5C 593.627,425.802 590.961,426.469 588.5,427.5C 587.167,427.5 585.833,427.5 584.5,427.5C 584.52,412.963 586.187,398.63 589.5,384.5C 587.245,389.845 585.745,395.512 585,401.5C 584.098,395.876 582.598,390.542 580.5,385.5C 581.831,392.819 583.164,400.152 584.5,407.5C 583.619,414.136 583.286,420.803 583.5,427.5C 576.843,426.832 570.509,425.166 564.5,422.5C 564.027,421.094 563.027,420.427 561.5,420.5C 535.314,406.329 521.981,384.162 521.5,354C 521.409,347.38 522.242,340.88 524,334.5C 524.519,333.484 525.353,332.818 526.5,332.5C 529.851,333.506 533.184,334.506 536.5,335.5C 537.209,336.404 538.209,336.737 539.5,336.5C 539.5,334.833 539.5,333.167 539.5,331.5C 545.786,312.248 556.12,295.581 570.5,281.5C 572.262,280.738 573.262,279.404 573.5,277.5C 578.126,271.801 581.959,265.467 585,258.5C 586.527,261.554 588.027,264.554 589.5,267.5 Z"/></g>
<g><path style="opacity:1" fill="#4d4a2b" d="M 643.5,332.5 C 644.947,331.115 645.947,331.448 646.5,333.5C 645.609,332.89 644.609,332.557 643.5,332.5 Z"/></g>
<g><path style="opacity:1" fill="#68621e" d="M 539.5,331.5 C 539.5,333.167 539.5,334.833 539.5,336.5C 538.209,336.737 537.209,336.404 536.5,335.5C 537.978,334.552 538.978,333.219 539.5,331.5 Z"/></g>
<g><path style="opacity:1" fill="#211c19" d="M 102.5,336.5 C 105.308,337.103 107.974,338.103 110.5,339.5C 107.902,345.459 105.402,351.459 103,357.5C 102.219,358.944 102.386,360.277 103.5,361.5C 127.364,371.119 151.031,381.119 174.5,391.5C 171.924,396.646 169.924,401.979 168.5,407.5C 143.861,398.684 119.528,389.017 95.5,378.5C 91.606,385.958 87.9393,393.625 84.5,401.5C 81.9124,400.806 79.579,399.64 77.5,398C 85.9313,377.539 94.2646,357.039 102.5,336.5 Z"/></g>
<g><path style="opacity:1" fill="#80790d" d="M 539.5,336.5 C 540.922,336.709 542.255,337.209 543.5,338C 541.648,338.773 540.314,338.273 539.5,336.5 Z"/></g>
<g><path style="opacity:1" fill="#a49c0c" d="M 615.5,344.5 C 616.773,345.077 616.773,345.743 615.5,346.5C 614.019,347.48 612.685,348.647 611.5,350C 610.833,350.667 610.167,350.667 609.5,350C 611.396,347.932 613.396,346.099 615.5,344.5 Z"/></g>
<g><path style="opacity:1" fill="#3e4344" d="M 666.5,332.5 C 667.953,338.267 668.62,344.267 668.5,350.5C 668.499,354.349 668.165,358.016 667.5,361.5C 667.532,351.817 667.199,342.151 666.5,332.5 Z"/></g>
<g><path style="opacity:1" fill="#a0980b" d="M 560.5,350.5 C 563.395,352.202 565.228,354.536 566,357.5C 563.546,355.559 561.713,353.225 560.5,350.5 Z"/></g>
<g><path style="opacity:1" fill="#a49c0a" d="M 606.5,352.5 C 607.525,352.897 607.692,353.563 607,354.5C 605.667,355.833 604.333,357.167 603,358.5C 602.333,357.833 602.333,357.167 603,356.5C 604.376,355.295 605.542,353.962 606.5,352.5 Z"/></g>
<g><path style="opacity:1" fill="#43483e" d="M 397.5,350.5 C 397.829,353.228 397.163,355.562 395.5,357.5C 395.41,354.848 396.076,352.515 397.5,350.5 Z"/></g>
<g><path style="opacity:1" fill="#88810e" d="M 589.5,384.5 C 590.074,380.675 591.241,377.009 593,373.5C 592.93,377.541 591.764,381.208 589.5,384.5 Z"/></g>
<g><path style="opacity:1" fill="#827b0f" d="M 580.5,385.5 C 578.764,382.786 577.93,379.786 578,376.5C 579.549,379.312 580.382,382.312 580.5,385.5 Z"/></g>
<g><path style="opacity:1" fill="#7e7711" d="M 589.5,384.5 C 586.187,398.63 584.52,412.963 584.5,427.5C 585.833,427.5 587.167,427.5 588.5,427.5C 587.626,428.525 586.459,429.192 585,429.5C 582.333,428.833 579.667,428.167 577,427.5C 576.235,427.57 575.735,427.903 575.5,428.5C 570.861,428.176 567.194,426.176 564.5,422.5C 570.509,425.166 576.843,426.832 583.5,427.5C 583.286,420.803 583.619,414.136 584.5,407.5C 583.164,400.152 581.831,392.819 580.5,385.5C 582.598,390.542 584.098,395.876 585,401.5C 585.745,395.512 587.245,389.845 589.5,384.5 Z"/></g>
<g><path style="opacity:1" fill="#546028" d="M 511.5,391.5 C 512.906,391.973 513.573,392.973 513.5,394.5C 512.094,394.027 511.427,393.027 511.5,391.5 Z"/></g>
<g><path style="opacity:1" fill="#56501d" d="M 561.5,420.5 C 563.027,420.427 564.027,421.094 564.5,422.5C 562.973,422.573 561.973,421.906 561.5,420.5 Z"/></g>
<g><path style="opacity:1" fill="#5f591c" d="M 605.5,422.5 C 603.45,424.547 601.117,426.214 598.5,427.5C 597.833,426.833 597.167,426.167 596.5,425.5C 599.594,424.787 602.594,423.787 605.5,422.5 Z"/></g>
<g><path style="opacity:1" fill="#c8c00b" d="M 596.5,425.5 C 597.167,426.167 597.833,426.833 598.5,427.5C 593.606,428.599 588.773,429.932 584,431.5C 581.303,430.212 578.47,429.212 575.5,428.5C 575.735,427.903 576.235,427.57 577,427.5C 579.667,428.167 582.333,428.833 585,429.5C 586.459,429.192 587.626,428.525 588.5,427.5C 590.961,426.469 593.627,425.802 596.5,425.5 Z"/></g>
<g><path style="opacity:0.89" fill="#83807f" d="M 1152.5,441.5 C 1153.61,443.599 1154.28,445.933 1154.5,448.5C 1153.88,448.389 1153.38,448.056 1153,447.5C 1152.5,445.527 1152.34,443.527 1152.5,441.5 Z"/></g>
<g><path style="opacity:1" fill="#211c19" d="M 60.5,447.5 C 89.1734,452.11 117.507,458.11 145.5,465.5C 144.58,471.118 143.247,476.618 141.5,482C 135.45,482.089 129.45,481.422 123.5,480C 101.414,475.189 79.414,470.189 57.5,465C 56.9415,464.275 56.6082,463.442 56.5,462.5C 57.6513,457.395 58.9847,452.395 60.5,447.5 Z"/></g>
<g><path style="opacity:1" fill="#40443d" d="M 558.5,455.5 C 558.611,454.883 558.944,454.383 559.5,454C 558.207,453.51 556.873,453.343 555.5,453.5C 559.086,452.456 562.752,451.623 566.5,451C 563.941,452.777 561.274,454.277 558.5,455.5 Z"/></g>
<g><path style="opacity:1" fill="#393d3b" d="M 611.5,453.5 C 610.209,453.263 609.209,453.596 608.5,454.5C 606.577,454.205 604.91,453.372 603.5,452C 606.419,451.567 609.086,452.067 611.5,453.5 Z"/></g>
<g><path style="opacity:1" fill="#404547" d="M 554.5,453.5 C 554.082,454.222 553.416,454.722 552.5,455C 546.535,455.963 540.535,456.463 534.5,456.5C 541.006,455.331 547.673,454.331 554.5,453.5 Z"/></g>
<g><path style="opacity:1" fill="#41464a" d="M 687.5,455.5 C 686.737,456.268 685.737,456.768 684.5,457C 680.848,457.499 677.182,457.665 673.5,457.5C 677.98,456.479 682.647,455.813 687.5,455.5 Z"/></g>
<g><path style="opacity:1" fill="#353834" d="M 634.5,456.5 C 646.48,457.338 658.48,457.672 670.5,457.5C 665.678,458.166 660.678,458.499 655.5,458.5C 648.264,458.702 641.264,458.035 634.5,456.5 Z"/></g>
<g><path style="opacity:1" fill="#697c1f" d="M 715.5,461.5 C 713.967,463.245 711.967,464.245 709.5,464.5C 711.033,462.755 713.033,461.755 715.5,461.5 Z"/></g>
<g><path style="opacity:1" fill="#454b42" d="M 631.5,464.5 C 634.228,464.171 636.562,464.837 638.5,466.5C 635.848,466.59 633.515,465.924 631.5,464.5 Z"/></g>
<g><path style="opacity:1" fill="#4a5326" d="M 469.5,466.5 C 473.078,466.549 476.411,467.215 479.5,468.5C 475.878,468.678 472.544,468.011 469.5,466.5 Z"/></g>
<g><path style="opacity:1" fill="#3d413e" d="M 639.5,466.5 C 642.781,466.42 645.781,467.087 648.5,468.5C 645.219,468.58 642.219,467.913 639.5,466.5 Z"/></g>
<g><path style="opacity:1" fill="#3b4035" d="M 314.5,454.5 C 313.834,462.483 313.501,470.483 313.5,478.5C 312.111,470.445 312.444,462.445 314.5,454.5 Z"/></g>
<g><path style="opacity:1" fill="#525e26" d="M 692.5,468.5 C 685.557,469.969 678.391,470.636 671,470.5C 666.32,470.499 661.82,470.166 657.5,469.5C 669.183,469.602 680.85,469.269 692.5,468.5 Z"/></g>
<g><path style="opacity:1" fill="#454d1c" d="M 299.5,482.5 C 298.833,476.833 298.167,471.167 297.5,465.5C 297.709,464.078 298.209,462.745 299,461.5C 299.5,468.492 299.666,475.492 299.5,482.5 Z"/></g>
<g><path style="opacity:1" fill="#434854" d="M 566.5,475.5 C 566.631,474.761 566.464,474.094 566,473.5C 565.329,474.252 564.496,474.586 563.5,474.5C 566.104,472.4 568.604,470.067 571,467.5C 570.625,470.73 569.125,473.397 566.5,475.5 Z"/></g>
<g><path style="opacity:1" fill="#48511d" d="M 871.5,466.5 C 870.833,470.833 870.167,475.167 869.5,479.5C 869.334,473.491 869.501,467.491 870,461.5C 871.009,463.025 871.509,464.692 871.5,466.5 Z"/></g>
<g><path style="opacity:1" fill="#41464b" d="M 605.5,474.5 C 604.761,474.369 604.094,474.536 603.5,475C 604.252,475.671 604.586,476.504 604.5,477.5C 601.234,474.762 599.067,471.429 598,467.5C 600.396,470.067 602.896,472.4 605.5,474.5 Z"/></g>
<g><path style="opacity:1" fill="#424752" d="M 530.5,487.5 C 530.082,488.222 529.416,488.722 528.5,489C 524.848,489.499 521.182,489.665 517.5,489.5C 521.657,488.551 525.99,487.884 530.5,487.5 Z"/></g>
<g><path style="opacity:1" fill="#454a54" d="M 313.5,481.5 C 314.482,485.316 315.149,489.316 315.5,493.5C 314.883,493.389 314.383,493.056 314,492.5C 313.501,488.848 313.335,485.182 313.5,481.5 Z"/></g>
<g><path style="opacity:1" fill="#444950" d="M 507.5,490.5 C 502.432,492.178 497.098,492.844 491.5,492.5C 496.598,491.043 501.931,490.376 507.5,490.5 Z"/></g>
<g><path style="opacity:1" fill="#5c6a24" d="M 545.5,490.5 C 543.152,492.097 540.486,493.097 537.5,493.5C 539.698,491.603 542.364,490.603 545.5,490.5 Z"/></g>
<g><path style="opacity:1" fill="#3d4243" d="M 630.5,490.5 C 633.495,490.294 636.162,490.96 638.5,492.5C 635.572,492.435 632.905,491.768 630.5,490.5 Z"/></g>
<g><path style="opacity:1" fill="#464c38" d="M 646.5,494.5 C 649.152,494.41 651.485,495.076 653.5,496.5C 650.848,496.59 648.515,495.924 646.5,494.5 Z"/></g>
<g><path style="opacity:1" fill="#3e444d" d="M 589.5,502.5 C 584.473,502.503 579.473,502.836 574.5,503.5C 577.382,502.087 580.549,501.421 584,501.5C 586.033,501.506 587.866,501.839 589.5,502.5 Z"/></g>
<g><path style="opacity:0.886" fill="#6e6a68" d="M 1164.5,503.5 C 1165.81,508.616 1166.47,513.949 1166.5,519.5C 1164.82,514.432 1164.16,509.098 1164.5,503.5 Z"/></g>
<g><path style="opacity:1" fill="#221d1a" d="M 52.5,520.5 C 57.4229,521.918 62.0895,523.918 66.5,526.5C 55.0831,531.667 50.9165,540.334 54,552.5C 62.2391,558.47 69.5725,557.47 76,549.5C 80.2441,542.249 84.9108,535.249 90,528.5C 99.2264,519.372 109.726,517.872 121.5,524C 131.01,530.518 135.677,539.684 135.5,551.5C 135.364,560.378 133.197,568.712 129,576.5C 127.612,577.554 126.112,577.72 124.5,577C 119.829,575.166 115.162,573.333 110.5,571.5C 119.095,570.073 124.261,565.073 126,556.5C 129.203,543.724 124.37,537.557 111.5,538C 105.896,541.603 101.729,546.437 99,552.5C 94.2844,558.094 89.451,563.594 84.5,569C 71.7142,575.034 60.2142,573.2 50,563.5C 45.7389,553.932 44.4055,543.932 46,533.5C 47.1206,528.592 49.2872,524.259 52.5,520.5 Z"/></g>
<g><path style="opacity:1" fill="#a9d105" d="M 599.5,522.5 C 601.905,523.768 604.572,524.435 607.5,524.5C 641.195,535.218 667.195,555.551 685.5,585.5C 685.427,587.027 686.094,588.027 687.5,588.5C 692.947,600.339 697.113,612.673 700,625.5C 702.587,646.77 706.587,667.77 712,688.5C 714.246,696.832 718.413,703.998 724.5,710C 727.071,711.454 729.738,712.62 732.5,713.5C 736.041,714.856 736.374,714.189 733.5,711.5C 728.588,688.571 737.921,678.404 761.5,681C 777.511,686.643 785.011,697.81 784,714.5C 779.935,733.133 768.435,743.966 749.5,747C 716.588,746.966 693.088,732.133 679,702.5C 675.682,693.533 672.849,684.533 670.5,675.5C 670.58,672.219 669.913,669.219 668.5,666.5C 668.5,665.833 668.5,665.167 668.5,664.5C 668.23,659.972 667.563,655.639 666.5,651.5C 666.392,646.29 665.725,641.29 664.5,636.5C 664.5,635.833 664.5,635.167 664.5,634.5C 664.259,629.306 663.593,624.306 662.5,619.5C 662.5,619.167 662.5,618.833 662.5,618.5C 662.461,614.267 661.795,610.267 660.5,606.5C 660.354,602.613 659.687,598.946 658.5,595.5C 658.706,592.505 658.04,589.838 656.5,587.5C 654.09,576.673 649.09,567.34 641.5,559.5C 641.573,557.973 640.906,556.973 639.5,556.5C 633.381,550.108 626.048,545.774 617.5,543.5C 616.365,541.787 614.698,541.12 612.5,541.5C 608.618,540.197 604.618,539.53 600.5,539.5C 590.008,538.341 579.341,538.175 568.5,539C 566.942,539.21 565.609,539.71 564.5,540.5C 541.364,544.458 525.531,557.458 517,579.5C 513.255,588.48 511.088,597.813 510.5,607.5C 509.199,611.943 508.532,616.609 508.5,621.5C 507.064,627.947 506.397,634.614 506.5,641.5C 505.194,646.616 504.527,651.949 504.5,657.5C 504.5,658.167 504.5,658.833 504.5,659.5C 503.437,663.639 502.77,667.972 502.5,672.5C 499.875,691.199 493.375,708.532 483,724.5C 472.308,737.268 458.808,745.602 442.5,749.5C 434.496,750.783 426.496,750.783 418.5,749.5C 390.103,740.372 380.603,721.705 390,693.5C 394.206,687.654 399.706,683.654 406.5,681.5C 411.463,680.746 416.463,680.413 421.5,680.5C 437.125,684.572 442.458,694.572 437.5,710.5C 436.751,711.531 436.085,712.698 435.5,714C 437.535,714.599 439.201,714.099 440.5,712.5C 448.209,708.787 453.375,702.787 456,694.5C 458.952,686.692 461.286,678.692 463,670.5C 467.265,650.507 471.265,630.507 475,610.5C 486.784,575.719 508.951,549.885 541.5,533C 551.831,528.334 562.497,524.668 573.5,522C 582.18,521.464 590.846,521.63 599.5,522.5 Z"/></g>
<g><path style="opacity:1" fill="#3b3f40" d="M 599.5,522.5 C 602.495,522.294 605.162,522.96 607.5,524.5C 604.572,524.435 601.905,523.768 599.5,522.5 Z"/></g>
<g><path style="opacity:0.741" fill="#7d7b79" d="M 4.5,511.5 C 4.92704,517.114 4.26038,522.447 2.5,527.5C 2.52705,521.949 3.19371,516.616 4.5,511.5 Z"/></g>
<g><path style="opacity:1" fill="#586625" d="M 667.5,529.5 C 669.027,529.427 670.027,530.094 670.5,531.5C 668.973,531.573 667.973,530.906 667.5,529.5 Z"/></g>
<g><path style="opacity:1" fill="#211c19" d="M 1040.5,640.5 C 1038.54,633.913 1037.87,626.913 1038.5,619.5C 1057.6,618.804 1076.6,616.971 1095.5,614C 1076.59,605.209 1057.92,595.876 1039.5,586C 1038.23,583.861 1038.23,581.695 1039.5,579.5C 1058.05,571.894 1075.71,562.728 1092.5,552C 1074.61,549.176 1056.61,547.343 1038.5,546.5C 1038.5,543.167 1038.5,539.833 1038.5,536.5C 1067.45,540.684 1096.45,544.684 1125.5,548.5C 1125.82,552.226 1125.49,555.893 1124.5,559.5C 1104.43,568.367 1084.77,578.033 1065.5,588.5C 1084.74,599.786 1104.74,609.453 1125.5,617.5C 1125.5,621.833 1125.5,626.167 1125.5,630.5C 1102.82,632.468 1080.16,634.634 1057.5,637C 1051.72,637.842 1046.05,639.008 1040.5,640.5 Z"/></g>
<g><path style="opacity:1" fill="#3b4139" d="M 600.5,539.5 C 588.474,539.275 576.474,539.608 564.5,540.5C 565.609,539.71 566.942,539.21 568.5,539C 579.341,538.175 590.008,538.341 600.5,539.5 Z"/></g>
<g><path style="opacity:1" fill="#556125" d="M 612.5,541.5 C 614.698,541.12 616.365,541.787 617.5,543.5C 615.597,543.204 613.93,542.537 612.5,541.5 Z"/></g>
<g><path style="opacity:1" fill="#515c28" d="M 319.5,547.5 C 320.906,547.973 321.573,548.973 321.5,550.5C 320.094,550.027 319.427,549.027 319.5,547.5 Z"/></g>
<g><path style="opacity:1" fill="#434847" d="M 401.5,552.5 C 399.22,554.223 396.553,554.889 393.5,554.5C 395.961,553.469 398.627,552.802 401.5,552.5 Z"/></g>
<g><path style="opacity:1" fill="#3b4151" d="M 393.5,554.5 C 390.305,556.03 386.805,556.696 383,556.5C 380.31,556.497 377.81,556.164 375.5,555.5C 381.529,555.575 387.529,555.241 393.5,554.5 Z"/></g>
<g><path style="opacity:1" fill="#3a4153" d="M 798.5,554.5 C 795.474,556.019 792.141,556.685 788.5,556.5C 785.975,556.497 783.641,556.163 781.5,555.5C 787.203,555.625 792.87,555.292 798.5,554.5 Z"/></g>
<g><path style="opacity:1" fill="#53603e" d="M 639.5,556.5 C 640.906,556.973 641.573,557.973 641.5,559.5C 640.094,559.027 639.427,558.027 639.5,556.5 Z"/></g>
<g><path style="opacity:1" fill="#fcf200" d="M 633.5,602.5 C 635.515,603.924 637.848,604.59 640.5,604.5C 641.289,604.783 641.956,605.283 642.5,606C 634.808,618.361 624.142,627.028 610.5,632C 616.166,643.165 619.499,654.998 620.5,667.5C 620.784,669.415 620.451,671.081 619.5,672.5C 606.182,666.691 595.015,658.024 586,646.5C 576.934,658.4 565.434,667.066 551.5,672.5C 551.36,658.505 554.36,645.172 560.5,632.5C 553.934,629.135 547.601,625.301 541.5,621C 536.694,616.374 532.361,611.374 528.5,606C 541.044,600.995 554.044,599.495 567.5,601.5C 568.568,602.434 569.901,602.768 571.5,602.5C 571.5,599.5 571.5,596.5 571.5,593.5C 573.395,582.045 578.228,572.045 586,563.5C 595.86,574.591 600.693,587.591 600.5,602.5C 611.487,599.934 622.487,599.934 633.5,602.5 Z"/></g>
<g><path style="opacity:1" fill="#677921" d="M 409.5,571.5 C 407.967,573.245 405.967,574.245 403.5,574.5C 405.033,572.755 407.033,571.755 409.5,571.5 Z"/></g>
<g><path style="opacity:1" fill="#464d36" d="M 353.5,573.5 C 357.427,573.926 361.093,574.926 364.5,576.5C 360.466,576.483 356.799,575.483 353.5,573.5 Z"/></g>
<g><path style="opacity:1" fill="#4e5920" d="M 764.5,575.5 C 767.495,575.294 770.162,575.96 772.5,577.5C 769.572,577.435 766.905,576.768 764.5,575.5 Z"/></g>
<g><path style="opacity:1" fill="#4f592c" d="M 685.5,585.5 C 686.906,585.973 687.573,586.973 687.5,588.5C 686.094,588.027 685.427,587.027 685.5,585.5 Z"/></g>
<g><path style="opacity:1" fill="#485130" d="M 656.5,587.5 C 658.04,589.838 658.706,592.505 658.5,595.5C 657.232,593.095 656.565,590.428 656.5,587.5 Z"/></g>
<g><path style="opacity:1" fill="#444227" d="M 571.5,593.5 C 571.5,596.5 571.5,599.5 571.5,602.5C 569.901,602.768 568.568,602.434 567.5,601.5C 568.5,601.5 569.5,601.5 570.5,601.5C 570.194,598.615 570.527,595.948 571.5,593.5 Z"/></g>
<g><path style="opacity:1" fill="#514e40" d="M 633.5,602.5 C 636.228,602.171 638.562,602.837 640.5,604.5C 637.848,604.59 635.515,603.924 633.5,602.5 Z"/></g>
<g><path style="opacity:1" fill="#211c19" d="M 130.5,605.5 C 131.725,606.152 132.392,607.319 132.5,609C 133.485,615.828 133.985,622.661 134,629.5C 121.411,638.545 108.911,647.711 96.5,657C 110.106,655.736 123.773,654.903 137.5,654.5C 137.502,660.523 137.835,666.523 138.5,672.5C 109.125,674.571 79.792,676.905 50.5,679.5C 49.9708,664.499 49.8041,649.499 50,634.5C 55.3112,620.431 65.1445,615.931 79.5,621C 85.1348,625.629 89.6348,631.129 93,637.5C 105.692,626.969 118.192,616.302 130.5,605.5 Z"/></g>
<g><path style="opacity:1" fill="#434851" d="M 660.5,606.5 C 661.795,610.267 662.461,614.267 662.5,618.5C 660.75,614.817 660.083,610.817 660.5,606.5 Z"/></g>
<g><path style="opacity:1" fill="#424753" d="M 510.5,607.5 C 510.877,612.453 510.211,617.119 508.5,621.5C 508.532,616.609 509.199,611.943 510.5,607.5 Z"/></g>
<g><path style="opacity:1" fill="#abaaa9" d="M 1038.5,619.5 C 1037.87,626.913 1038.54,633.913 1040.5,640.5C 1039.79,641.404 1038.79,641.737 1037.5,641.5C 1037.18,633.981 1037.51,626.648 1038.5,619.5 Z"/></g>
<g><path style="opacity:1" fill="#42464b" d="M 264.5,616.5 C 265.795,620.267 266.461,624.267 266.5,628.5C 264.75,624.817 264.083,620.817 264.5,616.5 Z"/></g>
<g><path style="opacity:1" fill="#44484e" d="M 662.5,619.5 C 663.593,624.306 664.259,629.306 664.5,634.5C 662.762,629.783 662.096,624.783 662.5,619.5 Z"/></g>
<g><path style="opacity:0.877" fill="#7f7c7a" d="M 1.5,628.5 C 2.28997,629.609 2.78997,630.942 3,632.5C 3.49926,637.489 3.66593,642.489 3.5,647.5C 2.25284,641.37 1.58618,635.037 1.5,628.5 Z"/></g>
<g><path style="opacity:1" fill="#f9f8f8" d="M 69.5,639.5 C 83.8509,637.855 90.8509,644.188 90.5,658.5C 81.815,659.236 73.1484,660.236 64.5,661.5C 62.0502,661.239 59.7169,660.572 57.5,659.5C 54.8846,648.716 58.8846,642.049 69.5,639.5 Z"/></g>
<g><path style="opacity:1" fill="#404449" d="M 664.5,636.5 C 665.725,641.29 666.392,646.29 666.5,651.5C 664.855,646.766 664.189,641.766 664.5,636.5 Z"/></g>
<g><path style="opacity:1" fill="#3f4436" d="M 506.5,641.5 C 506.624,647.069 505.957,652.402 504.5,657.5C 504.527,651.949 505.194,646.616 506.5,641.5 Z"/></g>
<g><path style="opacity:0.89" fill="#7f7c7a" d="M 3.5,650.5 C 4.22158,650.918 4.72158,651.584 5,652.5C 5.49863,656.152 5.6653,659.818 5.5,663.5C 4.29112,659.382 3.62446,655.049 3.5,650.5 Z"/></g>
<g><path style="opacity:0.894" fill="#787573" d="M 1166.5,649.5 C 1166.31,654.37 1165.64,659.036 1164.5,663.5C 1164.33,659.818 1164.5,656.152 1165,652.5C 1165.23,651.263 1165.73,650.263 1166.5,649.5 Z"/></g>
<g><path style="opacity:1" fill="#3f4440" d="M 666.5,651.5 C 667.563,655.639 668.23,659.972 668.5,664.5C 666.823,660.455 666.156,656.122 666.5,651.5 Z"/></g>
<g><path style="opacity:1" fill="#404552" d="M 504.5,659.5 C 504.665,662.85 504.498,666.183 504,669.5C 503.768,670.737 503.268,671.737 502.5,672.5C 502.77,667.972 503.437,663.639 504.5,659.5 Z"/></g>
<g><path style="opacity:1" fill="#211c19" d="M 1033.5,669.5 C 1045.28,679.435 1056.94,689.602 1068.5,700C 1080.17,709 1091.83,718 1103.5,727C 1107.8,730.555 1108.14,734.722 1104.5,739.5C 1072.73,741.685 1041.06,743.685 1009.5,745.5C 1011.13,738.74 1013.46,732.24 1016.5,726C 1024.83,726.051 1033.16,726.051 1041.5,726C 1045.59,717.567 1048.59,708.734 1050.5,699.5C 1050.17,698.167 1049.83,696.833 1049.5,695.5C 1043.43,690.088 1037.1,685.088 1030.5,680.5C 1031.71,676.878 1032.71,673.211 1033.5,669.5 Z"/></g>
<g><path style="opacity:1" fill="#4c4929" d="M 620.5,667.5 C 621.793,669.364 621.793,671.364 620.5,673.5C 619.893,673.376 619.56,673.043 619.5,672.5C 620.451,671.081 620.784,669.415 620.5,667.5 Z"/></g>
<g><path style="opacity:1" fill="#3e4338" d="M 668.5,666.5 C 669.913,669.219 670.58,672.219 670.5,675.5C 669.087,672.781 668.42,669.781 668.5,666.5 Z"/></g>
<g><path style="opacity:1" fill="#485028" d="M 421.5,680.5 C 416.463,680.413 411.463,680.746 406.5,681.5C 409.186,680.009 412.186,679.343 415.5,679.5C 417.696,679.505 419.696,679.838 421.5,680.5 Z"/></g>
<g><path style="opacity:0.89" fill="#736f6d" d="M 11.5,700.5 C 13.7276,704.076 14.7276,708.076 14.5,712.5C 13.0085,708.736 12.0085,704.736 11.5,700.5 Z"/></g>
<g><path style="opacity:0.882" fill="#757270" d="M 1158.5,700.5 C 1157.86,705.035 1156.86,709.368 1155.5,713.5C 1155.12,708.727 1156.12,704.393 1158.5,700.5 Z"/></g>
<g><path style="opacity:1" fill="#f5f5f5" d="M 1058.5,703.5 C 1066.67,710.167 1075,716.667 1083.5,723C 1073.16,724.21 1062.83,724.376 1052.5,723.5C 1053.93,716.643 1055.93,709.976 1058.5,703.5 Z"/></g>
<g><path style="opacity:1" fill="#424644" d="M 437.5,710.5 C 437.821,712.048 438.821,712.715 440.5,712.5C 439.201,714.099 437.535,714.599 435.5,714C 436.085,712.698 436.751,711.531 437.5,710.5 Z"/></g>
<g><path style="opacity:1" fill="#434929" d="M 733.5,711.5 C 736.374,714.189 736.041,714.856 732.5,713.5C 733.338,713.158 733.672,712.492 733.5,711.5 Z"/></g>
<g><path style="opacity:1" fill="#221d1a" d="M 146.5,713.5 C 149.05,713.561 150.55,714.894 151,717.5C 155.5,730.333 160,743.167 164.5,756C 138.025,767.223 111.025,777.39 83.5,786.5C 78.0385,772.121 72.3718,757.788 66.5,743.5C 69.1608,742.501 71.8275,741.501 74.5,740.5C 78.0136,747.536 80.8469,754.869 83,762.5C 83.3468,764.18 84.3468,765.18 86,765.5C 94.2223,763.093 102.222,760.093 110,756.5C 108.494,747.816 105.66,739.483 101.5,731.5C 104.326,730.42 107.159,729.42 110,728.5C 112.964,737.007 116.297,745.341 120,753.5C 130.302,749.789 140.469,745.789 150.5,741.5C 147.064,733.023 143.731,724.523 140.5,716C 142.852,715.76 144.852,714.927 146.5,713.5 Z"/></g>
<g><path style="opacity:0.882" fill="#6a6765" d="M 1155.5,714.5 C 1154.61,719.728 1153.28,724.728 1151.5,729.5C 1151.69,724.73 1152.53,720.063 1154,715.5C 1154.38,714.944 1154.88,714.611 1155.5,714.5 Z"/></g>
<g><path style="opacity:1" fill="#3a4050" d="M 418.5,749.5 C 426.496,750.783 434.496,750.783 442.5,749.5C 438.777,750.997 434.777,751.663 430.5,751.5C 426.223,751.663 422.223,750.997 418.5,749.5 Z"/></g>
<g><path style="opacity:0.839" fill="#6e6a68" d="M 25.5,755.5 C 28.6578,760.633 30.6578,766.3 31.5,772.5C 29.1326,767.07 27.1326,761.404 25.5,755.5 Z"/></g>
<g><path style="opacity:1" fill="#fdf300" d="M 682.5,839.5 C 682.565,836.529 681.731,833.862 680,831.5C 679.174,834.793 678.674,838.126 678.5,841.5C 671.933,872.67 665.599,904.003 659.5,935.5C 653.611,935.45 647.944,936.116 642.5,937.5C 638.4,937.237 634.4,937.57 630.5,938.5C 626.625,938.356 622.792,938.69 619,939.5C 618.167,939.333 617.333,939.167 616.5,939C 615.915,937.698 615.249,936.531 614.5,935.5C 612.406,926.557 609.739,917.89 606.5,909.5C 606.59,906.848 605.924,904.515 604.5,902.5C 604.737,901.209 604.404,900.209 603.5,899.5C 603.59,896.848 602.924,894.515 601.5,892.5C 601.737,891.209 601.404,890.209 600.5,889.5C 600.59,886.848 599.924,884.515 598.5,882.5C 594.233,866.699 589.566,851.033 584.5,835.5C 583.934,831.194 583.268,830.861 582.5,834.5C 577.344,855.386 572.177,876.386 567,897.5C 556.908,923.221 537.908,935.888 510,935.5C 458.966,929.542 437.299,900.875 445,849.5C 451.153,822.888 456.987,796.221 462.5,769.5C 465.482,769.963 468.482,770.296 471.5,770.5C 474.909,771.903 478.575,772.57 482.5,772.5C 485.096,773.265 487.763,773.599 490.5,773.5C 494.591,774.895 498.924,775.562 503.5,775.5C 503.833,775.5 504.167,775.5 504.5,775.5C 505.551,776.222 506.218,777.222 506.5,778.5C 502.26,802.845 497.927,827.178 493.5,851.5C 491.896,855.9 491.229,860.566 491.5,865.5C 489.703,873.368 490.703,881.034 494.5,888.5C 500.384,894.187 507.384,896.02 515.5,894C 518.63,891.872 521.463,889.372 524,886.5C 528.263,878.803 531.929,870.803 535,862.5C 540.489,837.219 545.656,811.886 550.5,786.5C 551.738,784.786 552.405,782.786 552.5,780.5C 566.01,780.829 579.344,780.496 592.5,779.5C 594.167,779.5 595.833,779.5 597.5,779.5C 600.939,779.253 604.272,779.586 607.5,780.5C 615.827,807.316 624.661,833.982 634,860.5C 639.041,834.585 643.541,808.585 647.5,782.5C 648.768,780.095 649.435,777.428 649.5,774.5C 667.455,772.242 685.122,768.576 702.5,763.5C 719.624,811.873 735.958,860.539 751.5,909.5C 742.752,912.704 734.085,916.204 725.5,920C 720.287,922.017 714.954,923.517 709.5,924.5C 701.074,895.894 692.074,867.56 682.5,839.5 Z"/></g>
<g><path style="opacity:0.871" fill="#676462" d="M 1143.5,758.5 C 1142.2,763.393 1140.54,768.06 1138.5,772.5C 1139.01,767.297 1140.68,762.63 1143.5,758.5 Z"/></g>
<g><path style="opacity:1" fill="#5f5b26" d="M 471.5,770.5 C 475.425,770.43 479.091,771.097 482.5,772.5C 478.575,772.57 474.909,771.903 471.5,770.5 Z"/></g>
<g><path style="opacity:1" fill="#4b4a4e" d="M 490.5,773.5 C 495.122,773.156 499.455,773.823 503.5,775.5C 498.924,775.562 494.591,774.895 490.5,773.5 Z"/></g>
<g><path style="opacity:1" fill="#797318" d="M 504.5,775.5 C 505.5,775.5 506.5,775.5 507.5,775.5C 507.737,776.791 507.404,777.791 506.5,778.5C 506.218,777.222 505.551,776.222 504.5,775.5 Z"/></g>
<g><path style="opacity:1" fill="#43412c" d="M 597.5,779.5 C 598.964,778.84 600.631,778.507 602.5,778.5C 604.64,778.556 606.306,779.223 607.5,780.5C 604.272,779.586 600.939,779.253 597.5,779.5 Z"/></g>
<g><path style="opacity:1" fill="#454227" d="M 592.5,779.5 C 579.344,780.496 566.01,780.829 552.5,780.5C 552.405,782.786 551.738,784.786 550.5,786.5C 550.674,784.139 551.007,781.806 551.5,779.5C 565.167,779.5 578.833,779.5 592.5,779.5 Z"/></g>
<g><path style="opacity:1" fill="#5a552a" d="M 649.5,774.5 C 649.435,777.428 648.768,780.095 647.5,782.5C 647.294,779.505 647.96,776.838 649.5,774.5 Z"/></g>
<g><path style="opacity:1" fill="#211c19" d="M 993.5,779.5 C 1019.45,792.404 1045.45,805.404 1071.5,818.5C 1068.71,823.287 1066.38,828.287 1064.5,833.5C 1064.17,833.833 1063.83,834.167 1063.5,834.5C 1040.27,822.969 1017.1,811.302 994,799.5C 989.092,807.643 984.426,815.977 980,824.5C 976.899,824.894 974.065,823.894 971.5,821.5C 979.334,807.835 986.667,793.835 993.5,779.5 Z"/></g>
<g><path style="opacity:1" fill="#221d1a" d="M 195.5,819.5 C 198.292,819.452 200.125,820.785 201,823.5C 202.301,825.365 202.635,827.365 202,829.5C 183.511,853.812 165.511,878.479 148,903.5C 144.54,897.41 140.706,891.577 136.5,886C 150.119,868.046 164.119,850.379 178.5,833C 167.909,834.474 157.242,835.807 146.5,837C 135.043,840.042 123.543,842.875 112,845.5C 109.595,842.367 107.429,839.033 105.5,835.5C 135.707,830.618 165.707,825.284 195.5,819.5 Z"/></g>
<g><path style="opacity:1" fill="#494628" d="M 584.5,835.5 C 583.833,835.167 583.167,834.833 582.5,834.5C 583.268,830.861 583.934,831.194 584.5,835.5 Z"/></g>
<g><path style="opacity:1" fill="#484957" d="M 682.5,839.5 C 681.849,838.909 681.182,838.243 680.5,837.5C 679.828,838.949 679.161,840.282 678.5,841.5C 678.674,838.126 679.174,834.793 680,831.5C 681.731,833.862 682.565,836.529 682.5,839.5 Z"/></g>
<g><path style="opacity:1" fill="#221d1a" d="M 959.5,842.5 C 961.776,844.331 963.609,846.664 965,849.5C 970.728,861.956 976.728,874.289 983,886.5C 991,900.186 998.667,913.853 1006,927.5C 1003.91,930.103 1001.41,932.103 998.5,933.5C 969.576,921.747 939.91,912.414 909.5,905.5C 909.351,904.448 909.517,903.448 910,902.5C 913.916,896.962 918.416,891.962 923.5,887.5C 931.056,889.944 938.389,892.944 945.5,896.5C 946.167,896.333 946.833,896.167 947.5,896C 953.366,890.469 958.866,884.635 964,878.5C 965.59,876.35 966.257,874.017 966,871.5C 962.031,864.7 957.865,858.034 953.5,851.5C 955.262,848.299 957.262,845.299 959.5,842.5 Z"/></g>
<g><path style="opacity:1" fill="#504d44" d="M 493.5,851.5 C 493.771,856.434 493.104,861.1 491.5,865.5C 491.229,860.566 491.896,855.9 493.5,851.5 Z"/></g>
<g><path style="opacity:1" fill="#211c19" d="M 243.5,883.5 C 249.317,886.876 253.484,891.542 256,897.5C 235.5,916.667 215,935.833 194.5,955C 188.83,951.836 184.163,947.336 180.5,941.5C 200.894,921.437 221.894,902.103 243.5,883.5 Z"/></g>
<g><path style="opacity:1" fill="#f6f5f5" d="M 970.5,883.5 C 971.458,883.953 972.292,884.619 973,885.5C 977.373,893.747 981.873,901.914 986.5,910C 976.465,906.82 966.465,903.32 956.5,899.5C 961.504,894.494 966.17,889.161 970.5,883.5 Z"/></g>
<g><path style="opacity:1" fill="#4e4c49" d="M 598.5,882.5 C 599.924,884.515 600.59,886.848 600.5,889.5C 598.837,887.562 598.171,885.228 598.5,882.5 Z"/></g>
<g><path style="opacity:1" fill="#4d4c4a" d="M 601.5,892.5 C 602.924,894.515 603.59,896.848 603.5,899.5C 601.837,897.562 601.171,895.228 601.5,892.5 Z"/></g>
<g><path style="opacity:1" fill="#4d4b4b" d="M 604.5,902.5 C 605.924,904.515 606.59,906.848 606.5,909.5C 604.837,907.562 604.171,905.228 604.5,902.5 Z"/></g>
<g><path style="opacity:1" fill="#221d1a" d="M 286.5,928.5 C 289.454,930.28 292.287,932.28 295,934.5C 299.207,961.198 303.54,987.865 308,1014.5C 319.248,998.339 330.248,982.006 341,965.5C 344.059,966.557 346.559,968.391 348.5,971C 333.379,994.74 317.879,1018.24 302,1041.5C 301.439,1042.02 300.772,1042.36 300,1042.5C 295.111,1041.08 291.778,1038.08 290,1033.5C 286.75,1008.06 283.084,982.731 279,957.5C 268.581,973.34 257.914,989.007 247,1004.5C 245.951,1005.52 244.784,1005.68 243.5,1005C 242.016,1003.43 240.349,1002.09 238.5,1001C 254.722,976.951 270.722,952.785 286.5,928.5 Z"/></g>
<g><path style="opacity:1" fill="#221d1a" d="M 883.5,928.5 C 884.496,928.414 885.329,928.748 886,929.5C 901.427,953.356 917.593,976.69 934.5,999.5C 930.562,1002.05 926.729,1004.72 923,1007.5C 897.507,1000.61 872.007,994.106 846.5,988C 856.609,1003.77 867.109,1019.27 878,1034.5C 878.667,1035.83 878.667,1037.17 878,1038.5C 875.808,1039.4 873.642,1040.4 871.5,1041.5C 854.933,1018.04 838.599,994.378 822.5,970.5C 824.984,967.756 827.984,965.756 831.5,964.5C 857.797,971.159 884.131,977.326 910.5,983C 899.537,966.239 888.204,949.739 876.5,933.5C 879.148,932.172 881.481,930.506 883.5,928.5 Z"/></g>
<g><path style="opacity:1" fill="#484641" d="M 659.5,935.5 C 654.056,936.884 648.389,937.55 642.5,937.5C 647.944,936.116 653.611,935.45 659.5,935.5 Z"/></g>
<g><path style="opacity:1" fill="#474856" d="M 614.5,935.5 C 615.249,936.531 615.915,937.698 616.5,939C 617.333,939.167 618.167,939.333 619,939.5C 622.792,938.69 626.625,938.356 630.5,938.5C 625.775,940.401 620.775,940.901 615.5,940C 614.62,938.644 614.286,937.144 614.5,935.5 Z"/></g>
<g><path style="opacity:1" fill="#221d1a" d="M 395.5,1000.5 C 415.494,998.754 431.994,1005.42 445,1020.5C 448.742,1026.85 449.409,1033.52 447,1040.5C 439.839,1061.32 431.506,1081.65 422,1101.5C 416.666,1099.05 411.5,1096.39 406.5,1093.5C 415.235,1073.37 423.402,1053.03 431,1032.5C 432.842,1023.35 429.676,1016.52 421.5,1012C 416.615,1010.22 411.615,1009.05 406.5,1008.5C 402.589,1008.3 398.922,1009.13 395.5,1011C 392.281,1014.55 389.448,1018.39 387,1022.5C 378.344,1039.48 370.511,1056.81 363.5,1074.5C 363,1074.83 362.5,1075.17 362,1075.5C 359.234,1074.08 356.401,1072.74 353.5,1071.5C 362.95,1051.33 372.116,1030.99 381,1010.5C 385.291,1006.28 390.124,1002.95 395.5,1000.5 Z"/></g>
<g><path style="opacity:1" fill="#221d1a" d="M 759.5,1000.5 C 774.242,999.355 786.408,1004.36 796,1015.5C 807.665,1030.16 810.999,1046.49 806,1064.5C 795.758,1082.55 780.258,1093.05 759.5,1096C 753.843,1096.5 748.176,1096.67 742.5,1096.5C 742.57,1091.39 741.903,1086.39 740.5,1081.5C 740.833,1081.17 741.167,1080.83 741.5,1080.5C 748.002,1086.75 755.669,1088.92 764.5,1087C 785.727,1082.06 793.894,1068.89 789,1047.5C 785.334,1032.62 777.168,1021.12 764.5,1013C 753.387,1011.04 743.053,1013.04 733.5,1019C 732.101,1020.06 731.101,1021.39 730.5,1023C 734.022,1032.55 737.688,1042.05 741.5,1051.5C 736.452,1054.13 731.285,1056.46 726,1058.5C 720.967,1048.43 716.467,1038.1 712.5,1027.5C 717.237,1022.3 722.57,1017.8 728.5,1014C 734.325,1011.25 739.992,1008.25 745.5,1005C 750.371,1003.71 755.037,1002.21 759.5,1000.5 Z"/></g>
<g><path style="opacity:0.878" fill="#878482" d="M 678.5,1161.5 C 675.373,1162.58 672.04,1163.25 668.5,1163.5C 668.611,1162.88 668.944,1162.38 669.5,1162C 672.482,1161.5 675.482,1161.34 678.5,1161.5 Z"/></g>
<g><path style="opacity:0.894" fill="#74716f" d="M 505.5,1163.5 C 508.85,1163.33 512.183,1163.5 515.5,1164C 516.416,1164.28 517.082,1164.78 517.5,1165.5C 513.295,1165.28 509.295,1164.62 505.5,1163.5 Z"/></g>
</svg>
